<svg xmlns="http://www.w3.org/2000/svg" xmlns:xlink="http://www.w3.org/1999/xlink"><symbol id="sprite-clock" viewBox="0 0 512 512"><title>clock</title><path d="M437.02 74.98C388.667 26.628 324.38 0 256 0S123.333 26.628 74.98 74.98C26.628 123.333 0 187.62 0 256s26.628 132.667 74.98 181.02C123.333 485.372 187.62 512 256 512s132.667-26.628 181.02-74.98C485.372 388.667 512 324.38 512 256s-26.628-132.667-74.98-181.02zM256 491.602c-129.911 0-235.602-105.69-235.602-235.602S126.089 20.398 256 20.398 491.602 126.089 491.602 256 385.911 491.602 256 491.602z"/><path d="M256 40.201C137.008 40.201 40.201 137.008 40.201 256S137.008 471.799 256 471.799 471.799 374.992 471.799 256 374.992 40.201 256 40.201zm174.07 304.522l-29.412-16.982c-4.877-2.815-11.115-1.145-13.932 3.733s-1.145 11.116 3.733 13.932l29.376 16.96a196.985 196.985 0 0 1-57.467 57.467l-16.96-29.376c-2.817-4.879-9.055-6.55-13.932-3.733-4.878 2.816-6.55 9.054-3.733 13.932l16.982 29.412c-23.785 12.172-50.376 19.611-78.524 21.065v-33.988c0-5.633-4.566-10.199-10.199-10.199s-10.199 4.566-10.199 10.199v33.988c-28.148-1.454-54.738-8.893-78.524-21.065l16.982-29.412c2.817-4.878 1.145-11.116-3.733-13.932-4.877-2.815-11.116-1.145-13.932 3.733l-16.96 29.376a196.961 196.961 0 0 1-57.467-57.467l29.376-16.96c4.878-2.816 6.55-9.054 3.733-13.932-2.816-4.878-9.055-6.55-13.932-3.733L81.93 344.723c-12.172-23.785-19.611-50.376-21.065-78.524h33.988c5.633 0 10.199-4.566 10.199-10.199s-4.566-10.199-10.199-10.199H60.865c1.454-28.148 8.893-54.738 21.065-78.524l29.412 16.982a10.194 10.194 0 0 0 13.932-3.733c2.817-4.878 1.145-11.116-3.733-13.932l-29.376-16.96a196.961 196.961 0 0 1 57.467-57.467l16.96 29.376a10.194 10.194 0 0 0 13.932 3.733c4.878-2.816 6.55-9.054 3.733-13.932l-16.98-29.414c23.784-12.172 50.376-19.611 78.524-21.065v33.988c0 5.633 4.566 10.199 10.199 10.199s10.199-4.566 10.199-10.199V60.865c28.148 1.454 54.738 8.893 78.524 21.065l-16.982 29.412c-2.817 4.878-1.145 11.116 3.733 13.932a10.194 10.194 0 0 0 13.932-3.733l16.96-29.376a196.961 196.961 0 0 1 57.467 57.467l-29.376 16.96c-4.878 2.816-6.55 9.054-3.733 13.932a10.194 10.194 0 0 0 13.932 3.733l29.412-16.982c12.172 23.785 19.611 50.376 21.065 78.524h-33.988c-5.633 0-10.199 4.566-10.199 10.199s4.566 10.199 10.199 10.199h33.988c-1.452 28.15-8.89 54.74-21.063 78.526z"/><path d="M266.199 227.604v-65.437c0-5.633-4.566-10.199-10.199-10.199s-10.199 4.566-10.199 10.199v65.437c-11.633 4.191-19.974 15.336-19.974 28.396 0 7.418 2.696 14.215 7.153 19.474l-16.189 28.041c-2.817 4.878-1.145 11.116 3.733 13.932a10.194 10.194 0 0 0 13.932-3.733l16.181-28.027c1.742.314 3.532.487 5.363.487 16.638 0 30.173-13.535 30.173-30.173 0-13.06-8.341-24.205-19.974-28.397zM256 265.775c-5.39 0-9.775-4.385-9.775-9.775 0-5.39 4.385-9.775 9.775-9.775 5.39 0 9.775 4.385 9.775 9.775 0 5.39-4.385 9.775-9.775 9.775zM256 118.311c-5.633 0-10.199 4.566-10.199 10.199v4.08c0 5.633 4.566 10.199 10.199 10.199s10.199-4.566 10.199-10.199v-4.08c0-5.633-4.566-10.199-10.199-10.199z"/></symbol><use xlink:href="#sprite-clock" width="512" height="512"/><symbol id="sprite-discount" viewBox="-4 0 511 512"><title>discount</title><path d="M252.691 0c12.024 0 20.32 9.48 28.54 18.871 4.867 5.563 9.69 11.074 12.644 11.61 3.023.55 9.516-3.055 15.969-6.641 10.676-5.934 21.293-11.828 32.164-7.781 10.992 4.093 15.11 15.617 19.21 27.101 2.43 6.797 4.848 13.57 7.16 14.926 2.317 1.355 9.438.11 16.548-1.133 11.937-2.09 23.86-4.176 32.71 3.29 8.805 7.429 8.75 19.558 8.696 31.687-.031 7.16-.066 14.32 1.664 16.37 1.73 2.055 8.785 3.243 15.844 4.43 11.98 2.02 23.98 4.04 29.851 14.06 5.856 9.995 1.817 21.397-2.238 32.839-2.433 6.863-4.875 13.75-3.89 16.394.984 2.637 7.23 6.27 13.507 9.922 10.64 6.188 21.344 12.41 23.465 24.094 2.086 11.484-5.504 21.035-13.16 30.676-4.695 5.914-9.434 11.879-9.434 15.285 0 3.41 4.739 9.375 9.434 15.29 7.656 9.636 15.246 19.187 13.16 30.67-2.12 11.685-12.824 17.911-23.465 24.099-6.277 3.648-12.523 7.28-13.507 9.921-.985 2.645 1.457 9.532 3.89 16.395 4.055 11.441 8.094 22.844 2.238 32.836-5.87 10.023-17.87 12.043-29.851 14.059-7.059 1.19-14.113 2.378-15.844 4.43-1.73 2.054-1.695 9.214-1.664 16.374.055 12.13.11 24.258-8.695 31.688-8.852 7.465-20.774 5.379-32.711 3.289-7.11-1.242-14.23-2.489-16.547-1.133-2.313 1.355-4.73 8.129-7.16 14.926-4.102 11.484-8.219 23.008-19.211 27.101-10.871 4.047-21.488-1.851-32.164-7.78-6.453-3.587-12.942-7.192-15.969-6.642-2.953.536-7.777 6.047-12.645 11.606-8.218 9.39-16.515 18.871-28.539 18.871-12.02 0-20.316-9.48-28.539-18.871-4.863-5.563-9.687-11.074-12.644-11.61-3.024-.55-9.512 3.055-15.969 6.641-10.676 5.934-21.289 11.828-32.16 7.781-10.996-4.093-15.11-15.617-19.215-27.101-2.426-6.793-4.848-13.57-7.16-14.926-2.313-1.355-9.434-.11-16.547 1.137-11.937 2.086-23.86 4.172-32.71-3.293-8.806-7.43-8.75-19.559-8.696-31.688.035-7.16.066-14.32-1.664-16.37-1.73-2.055-8.782-3.243-15.844-4.43-11.98-2.016-23.98-4.04-29.852-14.06-5.851-9.995-1.812-21.397 2.243-32.839 2.433-6.863 4.87-13.75 3.886-16.394-.98-2.637-7.226-6.27-13.507-9.922-10.637-6.188-21.344-12.41-23.461-24.094-2.086-11.484 5.5-21.04 13.156-30.676 4.699-5.914 9.437-11.879 9.437-15.289 0-3.406-4.738-9.371-9.437-15.285-7.656-9.64-15.242-19.188-13.156-30.676 2.117-11.683 12.824-17.906 23.46-24.094 6.282-3.652 12.528-7.285 13.508-9.921.985-2.645-1.453-9.532-3.886-16.395-4.055-11.441-8.098-22.844-2.243-32.836 5.872-10.023 17.872-12.043 29.852-14.059 7.062-1.19 14.113-2.378 15.844-4.43 1.73-2.054 1.699-9.214 1.664-16.374-.055-12.13-.11-24.262 8.695-31.684 8.852-7.465 20.774-5.383 32.711-3.293 7.113 1.242 14.234 2.489 16.547 1.133 2.312-1.352 4.734-8.129 7.16-14.926 4.102-11.48 8.223-23.008 19.215-27.101 10.871-4.047 21.484 1.851 32.16 7.78 6.457 3.587 12.945 7.192 15.969 6.642 2.957-.536 7.781-6.047 12.644-11.606C232.375 9.481 240.672 0 252.692 0zm123.922 129.176c-5.523 0-10 4.476-10 10 0 2.46.89 4.715 2.367 6.457v.004l-.003-.004.03.035c.204.238.419.465.641.68 26.895 28.672 43.364 67.238 43.364 109.652 0 44.273-17.942 84.352-46.953 113.363-29.012 29.016-69.094 46.957-113.368 46.957-18.953 0-37.136-3.289-54.011-9.328a10.673 10.673 0 0 0-.93-.332l-.023-.012v.004a10.033 10.033 0 0 0-2.903-.43c-5.52 0-10 4.477-10 10 0 4.532 3.016 8.356 7.145 9.587 18.972 6.785 39.418 10.484 60.722 10.484 49.786 0 94.86-20.184 127.485-52.809 32.629-32.629 52.808-77.699 52.808-127.484 0-47.64-18.48-90.96-48.656-123.191a9.987 9.987 0 0 0-7.715-3.633zm-30.18-25.383c-5.519 0-10 4.477-10 10 0 5.52 4.481 10 10 10 5.524 0 10-4.48 10-10 0-5.523-4.476-10-10-10zm-32.456-17.398c-19.133-6.915-39.766-10.688-61.286-10.688-49.785 0-94.855 20.18-127.484 52.809C92.582 161.14 72.398 206.215 72.398 256c0 47.54 18.403 90.777 48.465 122.988a9.986 9.986 0 0 0 7.68 3.594c5.523 0 10-4.477 10-10 0-2.453-.883-4.7-2.352-6.437v-.008l-.039-.043a8.938 8.938 0 0 0-.617-.656C108.762 336.784 92.371 298.308 92.371 256c0-44.273 17.945-84.355 46.957-113.363C168.34 113.62 208.422 95.68 252.691 95.68c19.133 0 37.48 3.351 54.493 9.5h.004a9.966 9.966 0 0 0 3.914.793c5.523 0 10-4.477 10-10 0-4.524-3.004-8.344-7.125-9.578zM158.949 388.207c-5.52 0-10 4.477-10 10s4.48 10 10 10c5.524 0 10-4.477 10-10s-4.476-10-10-10zm35.524-230.488c-11.465 0-21.844 4.644-29.36 12.16-7.511 7.516-12.16 17.894-12.16 29.36 0 11.46 4.649 21.843 12.16 29.355 7.516 7.515 17.895 12.164 29.36 12.164s21.843-4.649 29.359-12.164c7.512-7.512 12.16-17.895 12.16-29.356 0-11.465-4.648-21.843-12.16-29.36-7.516-7.515-17.894-12.16-29.36-12.16zM209.71 184a21.483 21.483 0 0 0-15.238-6.312c-5.95 0-11.34 2.414-15.239 6.312s-6.308 9.285-6.308 15.238c0 5.95 2.41 11.34 6.308 15.239a21.502 21.502 0 0 0 15.239 6.308 21.48 21.48 0 0 0 15.238-6.308 21.486 21.486 0 0 0 6.309-15.239A21.48 21.48 0 0 0 209.71 184zm92.894-21.758l-116.44 176.594c-3.017 4.59-1.743 10.754 2.847 13.77 4.59 3.015 10.754 1.742 13.77-2.848l116.44-176.594c3.016-4.59 1.743-10.754-2.847-13.77s-10.754-1.742-13.77 2.848zm8.31 109c-11.466 0-21.849 4.649-29.36 12.16-7.512 7.516-12.16 17.899-12.16 29.36 0 11.465 4.648 21.843 12.16 29.36 7.515 7.51 17.894 12.16 29.36 12.16 11.464 0 21.843-4.65 29.355-12.16 7.515-7.517 12.164-17.895 12.164-29.36s-4.649-21.844-12.164-29.36c-7.512-7.511-17.891-12.16-29.356-12.16zm15.233 26.281a21.486 21.486 0 0 0-15.234-6.308 21.48 21.48 0 0 0-15.238 6.308 21.49 21.49 0 0 0-6.313 15.239A21.48 21.48 0 0 0 295.675 328a21.48 21.48 0 0 0 15.238 6.309c5.95 0 11.34-2.41 15.234-6.309a21.466 21.466 0 0 0 6.313-15.238 21.48 21.48 0 0 0-6.313-15.239zM266.254 31.98c-5.23-5.976-10.508-12.007-13.559-12.007-3.054 0-8.332 6.03-13.562 12.007-7.16 8.18-14.262 16.293-24.113 18.083-10 1.816-19.602-3.52-29.153-8.829-6.656-3.699-13.277-7.375-15.543-6.53-2.234.831-4.8 8.01-7.355 15.163-3.637 10.176-7.258 20.32-15.899 25.38-8.699 5.097-19.379 3.23-30.043 1.362-7.363-1.285-14.722-2.574-16.402-1.152-1.742 1.469-1.71 8.934-1.676 16.395.051 10.84.098 21.68-6.347 29.324-6.426 7.62-17.098 9.418-27.782 11.215-7.394 1.246-14.808 2.492-15.96 4.464-1.15 1.958 1.359 9.04 3.878 16.141 3.625 10.23 7.262 20.492 3.73 29.969-3.484 9.355-12.8 14.773-22.167 20.223-6.68 3.882-13.403 7.792-13.867 10.363-.473 2.605 4.332 8.652 9.18 14.758 6.874 8.652 13.808 17.379 13.808 27.691 0 10.316-6.934 19.04-13.809 27.695-4.847 6.102-9.652 12.149-9.18 14.758.465 2.57 7.188 6.477 13.868 10.363 9.367 5.446 18.683 10.864 22.168 20.22 3.531 9.48-.106 19.741-3.73 29.972-2.52 7.101-5.028 14.18-3.88 16.14 1.153 1.97 8.563 3.22 15.961 4.461 10.688 1.801 21.356 3.594 27.782 11.22 6.445 7.64 6.398 18.48 6.347 29.323-.035 7.461-.066 14.922 1.676 16.395 1.684 1.418 9.04.133 16.402-1.156 10.664-1.864 21.344-3.735 30.043 1.363 8.64 5.059 12.266 15.203 15.899 25.379 2.554 7.152 5.12 14.336 7.355 15.164 2.266.844 8.887-2.832 15.543-6.531 9.551-5.305 19.153-10.641 29.153-8.825 9.855 1.786 16.953 9.899 24.113 18.082 5.23 5.977 10.508 12.008 13.562 12.008 3.051 0 8.328-6.031 13.559-12.008 7.16-8.183 14.262-16.296 24.11-18.082 10-1.816 19.605 3.52 29.156 8.825 6.656 3.699 13.277 7.375 15.543 6.53 2.234-.827 4.8-8.01 7.355-15.163 3.637-10.176 7.258-20.317 15.895-25.38 8.703-5.097 19.378-3.23 30.042-1.362 7.368 1.289 14.723 2.578 16.41 1.156 1.739-1.473 1.708-8.934 1.673-16.395-.051-10.84-.098-21.683 6.347-29.324 6.426-7.625 17.094-9.418 27.777-11.219 7.399-1.242 14.813-2.492 15.965-4.46 1.149-1.961-1.359-9.04-3.879-16.141-3.625-10.23-7.261-20.492-3.73-29.973 3.48-9.355 12.8-14.773 22.164-20.219 6.684-3.886 13.402-7.793 13.871-10.363.473-2.61-4.332-8.656-9.18-14.758-6.875-8.656-13.808-17.379-13.808-27.695 0-10.312 6.933-19.04 13.808-27.691 4.848-6.106 9.653-12.153 9.18-14.758-.469-2.57-7.187-6.48-13.871-10.363-9.363-5.45-18.684-10.868-22.164-20.223-3.531-9.477.105-19.738 3.73-29.969 2.52-7.101 5.028-14.183 3.88-16.14-1.153-1.973-8.567-3.22-15.966-4.465-10.683-1.797-21.351-3.594-27.777-11.215-6.445-7.645-6.398-18.485-6.348-29.324.036-7.461.067-14.926-1.671-16.395-1.688-1.422-9.043-.133-16.41 1.152-10.665 1.868-21.34 3.735-30.04-1.363-8.64-5.058-12.265-15.203-15.898-25.379-2.555-7.152-5.121-14.332-7.356-15.164-2.265-.844-8.886 2.832-15.542 6.531-9.555 5.309-19.157 10.645-29.157 8.829-9.851-1.79-16.949-9.903-24.11-18.083zm0 0" fill-rule="evenodd"/></symbol><use xlink:href="#sprite-discount" y="512" width="511" height="512"/><symbol id="sprite-exam" viewBox="0 0 512 512"><title>exam</title><path d="M375.451 315.733a8.536 8.536 0 0 0-8.533-8.533h-51.2c-4.71 0-8.533 3.823-8.533 8.533s3.823 8.533 8.533 8.533h51.2c4.71.001 8.533-3.822 8.533-8.533zM341.317 93.867V51.2c0-4.71-3.823-8.533-8.533-8.533s-8.533 3.823-8.533 8.533v42.667c0 23.526 19.14 42.667 42.667 42.667h76.8v162.133c0 4.71 3.823 8.533 8.533 8.533s8.533-3.823 8.533-8.533V128a8.536 8.536 0 0 0-8.533-8.533h-85.333c-14.115 0-25.601-11.486-25.601-25.6zm25.6 110.933H298.65a8.536 8.536 0 0 0-8.533 8.533 8.536 8.536 0 0 0 8.533 8.533h68.267a8.536 8.536 0 0 0 8.533-8.533c.001-4.71-3.822-8.533-8.533-8.533zm-93.866 8.533a8.536 8.536 0 0 0-8.533-8.533h-51.2a8.536 8.536 0 0 0-8.533 8.533 8.536 8.536 0 0 0 8.533 8.533h51.2c4.71.001 8.533-3.822 8.533-8.533zM213.317 256a8.536 8.536 0 0 0-8.533 8.533 8.536 8.536 0 0 0 8.533 8.533h17.067a8.536 8.536 0 0 0 8.533-8.533 8.536 8.536 0 0 0-8.533-8.533h-17.067zm0-85.333h85.333a8.536 8.536 0 0 0 8.533-8.533 8.536 8.536 0 0 0-8.533-8.533h-85.333a8.536 8.536 0 0 0-8.533 8.533 8.536 8.536 0 0 0 8.533 8.533zm51.2 102.4h85.333a8.536 8.536 0 0 0 8.533-8.533 8.536 8.536 0 0 0-8.533-8.533h-85.333a8.536 8.536 0 0 0-8.533 8.533 8.536 8.536 0 0 0 8.533 8.533zm51.2 85.333c-4.71 0-8.533 3.823-8.533 8.533s3.823 8.533 8.533 8.533h17.067c4.71 0 8.533-3.823 8.533-8.533s-3.823-8.533-8.533-8.533h-17.067zm-34.133-51.2h-68.267c-4.71 0-8.533 3.823-8.533 8.533s3.823 8.533 8.533 8.533h68.267c4.71 0 8.533-3.823 8.533-8.533s-3.823-8.533-8.533-8.533zm0 51.2h-68.267c-4.71 0-8.533 3.823-8.533 8.533s3.823 8.533 8.533 8.533h68.267c4.71 0 8.533-3.823 8.533-8.533s-3.823-8.533-8.533-8.533zm203.17-6.903l-17.067-17.067c-13.116-13.116-33.101-13.09-46.199 0L309.684 446.234a8.546 8.546 0 0 0-2.5 6.033v51.2a8.536 8.536 0 0 0 8.533 8.533h51.2a8.546 8.546 0 0 0 6.033-2.5l111.804-111.804c13.594-13.594 13.594-32.597 0-46.199zm-74.3 18.099l13.534 13.534-74.138 74.138-13.534-13.534 74.138-74.138zm-86.203 125.337v-39.134l39.134 39.134h-39.134zm51.2-12.066l-13.534-13.534 74.138-74.138 13.534 13.534-74.138 74.138zm97.237-97.237l-11.034 11.034-39.134-39.134 11.034-11.034c6.741-6.733 15.292-6.767 22.067 0l17.067 17.067c6.903 6.912 6.903 15.163 0 22.067z"/><path d="M281.584 494.933H59.717c-14.114 0-25.6-11.486-25.6-25.6V42.667c0-14.114 11.486-25.6 25.6-25.6h269.534L412.084 99.9a8.523 8.523 0 0 0 12.066 0 8.523 8.523 0 0 0 0-12.066L338.817 2.5a8.513 8.513 0 0 0-6.033-2.5H59.717C36.191 0 17.051 19.14 17.051 42.667v426.667c0 23.526 19.14 42.667 42.667 42.667h221.867c4.71 0 8.533-3.823 8.533-8.533s-3.824-8.535-8.534-8.535z"/><path d="M281.584 409.6h-68.267c-4.71 0-8.533 3.823-8.533 8.533s3.823 8.533 8.533 8.533h68.267c4.71 0 8.533-3.823 8.533-8.533s-3.823-8.533-8.533-8.533zM170.651 162.133a8.536 8.536 0 0 0-8.533-8.533h-51.2a8.536 8.536 0 0 0-8.533 8.533v51.2a8.536 8.536 0 0 0 8.533 8.533h51.2a8.536 8.536 0 0 0 8.533-8.533v-51.2zM153.584 204.8h-34.133v-34.133h34.133V204.8zm-42.667 221.867h51.2a8.536 8.536 0 0 0 8.533-8.533v-51.2a8.536 8.536 0 0 0-8.533-8.533h-51.2a8.536 8.536 0 0 0-8.533 8.533v51.2a8.536 8.536 0 0 0 8.533 8.533zm8.534-51.2h34.133V409.6h-34.133v-34.133zm2.5-53.701a8.54 8.54 0 0 0 6.878 2.457 8.513 8.513 0 0 0 6.255-3.755l34.133-51.2c2.611-3.925 1.553-9.225-2.364-11.836a8.533 8.533 0 0 0-11.836 2.364l-28.356 42.539-9.711-9.702c-3.336-3.337-8.73-3.337-12.066 0s-3.337 8.73 0 12.066l17.067 17.067z"/></symbol><use xlink:href="#sprite-exam" y="1024" width="512" height="512"/><symbol id="sprite-like" viewBox="0 0 512 512"><title>like</title><path d="M346 0c-5.522 0-10 4.478-10 10v46c0 5.522 4.478 10 10 10s10-4.478 10-10V10c0-5.522-4.478-10-10-10zM116 312c-5.52 0-10 4.48-10 10s4.48 10 10 10 10-4.48 10-10-4.48-10-10-10z"/><path d="M486 292c0-22.056-17.944-40-40-40h-74.652c11.557-29.603 16.235-64.447 15.333-95.464-.172-5.919-.399-9.342-.706-11.497C385.458 123.432 367.716 106 346 106c-22.056 0-40 17.944-40 40v10c0 63.246-81.214 98.781-142.504 114.019C158.862 259.425 148.284 252 136 252H36c-5.522 0-10 4.478-10 10v240c0 5.522 4.478 10 10 10h100c12.202 0 22.719-7.327 27.401-17.809a3274.4 3274.4 0 0 1 14.135 3.668C212.451 506.978 231.684 512 278.46 512H386c22.056 0 40-17.944 40-40a39.764 39.764 0 0 0-6.77-22.238C434.678 444.359 446 429.599 446 412c0-8.194-2.436-15.869-6.696-22.262C454.684 384.326 466 369.6 466 352a39.764 39.764 0 0 0-6.77-22.238C474.678 324.359 486 309.599 486 292zM146 482c0 5.514-4.486 10-10 10H46V272h90c5.514 0 10 4.486 10 10v200zm300-170h-50c-5.522 0-10 4.478-10 10s4.478 10 10 10h30c11.028 0 20 8.972 20 20 0 11.046-8.954 20-20 20h-50c-5.522 0-10 4.478-10 10s4.478 10 10 10h30c10.897 0 20 8.705 20 20 0 11.046-8.954 20-20 20h-50c-5.522 0-10 4.478-10 10s4.478 10 10 10h30c11.028 0 20 8.972 20 20s-8.972 20-20 20H278.46c-44.207 0-61.473-4.509-95.87-13.492a2882.872 2882.872 0 0 0-16.59-4.295V290.025C238.368 272.787 326 230.711 326 156v-10c0-11.028 8.972-20 20-20 11.008 0 19.979 8.958 20 19.969V146c0 4.346 5.424 57.683-16.326 106H316c-5.522 0-10 4.478-10 10s4.478 10 10 10h130c11.028 0 20 8.972 20 20 0 11.046-8.954 20-20 20z"/><path d="M116 352c-5.522 0-10 4.478-10 10v80c0 5.522 4.478 10 10 10s10-4.478 10-10v-80c0-5.522-4.478-10-10-10zM266 126h-40c-5.522 0-10 4.478-10 10s4.478 10 10 10h40c5.522 0 10-4.478 10-10s-4.478-10-10-10zM466 126h-40c-5.522 0-10 4.478-10 10s4.478 10 10 10h40c5.522 0 10-4.478 10-10s-4.478-10-10-10zM437.921 44.079c-3.906-3.904-10.236-3.904-14.143 0l-28.279 28.279c-3.905 3.905-3.905 10.237 0 14.143 3.907 3.905 10.236 3.904 14.143 0l28.279-28.279c3.905-3.905 3.905-10.237 0-14.143zM296.501 72.358l-28.279-28.279c-3.906-3.904-10.236-3.904-14.143 0-3.905 3.905-3.905 10.237 0 14.143l28.279 28.279c3.908 3.905 10.237 3.904 14.143 0 3.905-3.905 3.905-10.237 0-14.143z"/></symbol><use xlink:href="#sprite-like" y="1536" width="512" height="512"/><symbol id="sprite-phone" viewBox="0 0 348.077 348.077"><title>phone</title><path fill="currentColor" d="M340.273 275.083l-53.755-53.761c-10.707-10.664-28.438-10.34-39.518.744l-27.082 27.076a792.327 792.327 0 0 1-5.344-2.973c-17.102-9.476-40.509-22.464-65.14-47.113-24.704-24.701-37.704-48.144-47.209-65.257-1.003-1.813-1.964-3.561-2.913-5.221l18.176-18.149 8.936-8.947c11.097-11.1 11.403-28.826.721-39.521L73.39 8.194c-10.682-10.68-28.421-10.356-39.518.744l-15.15 15.237.414.411c-5.08 6.482-9.325 13.958-12.484 22.02C3.74 54.28 1.927 61.603 1.098 68.941-6 127.785 20.89 181.564 93.866 254.541c100.875 100.868 182.167 93.248 185.674 92.876 7.638-.913 14.958-2.738 22.397-5.627 7.992-3.122 15.463-7.361 21.941-12.43l.331.294 15.348-15.029c11.074-11.098 11.393-28.83.716-39.542z"/></symbol><use xlink:href="#sprite-phone" y="2048" width="12" height="12"/><symbol id="sprite-profile" viewBox="0 0 485.211 485.21"><title>profile</title><path fill="currentColor" d="M394.235 333.585h-30.327c-33.495 0-60.653-27.158-60.653-60.654v-19.484c13.418-15.948 23.042-34.812 29.024-54.745.621-3.36 3.855-5.02 6.012-7.33 11.611-11.609 13.894-31.2 5.185-45.149-1.186-2.117-3.322-3.953-3.201-6.576 0-17.784.089-35.596-.023-53.366-.476-21.455-6.608-43.773-21.65-59.66-12.144-12.836-28.819-20.479-46.022-23.75-21.739-4.147-44.482-3.937-66.013 1.54-18.659 4.709-36.189 15.637-47.028 31.836-9.598 14.083-13.803 31.183-14.513 48.036-.266 18.094-.061 36.233-.116 54.371.413 3.631-2.667 6.088-4.058 9.094-8.203 14.881-4.592 35.155 8.589 45.978 3.344 2.308 3.97 6.515 5.181 10.142 5.748 17.917 15.282 34.487 27.335 48.925v20.138c0 33.496-27.157 60.654-60.651 60.654H90.978S36.014 348.743 0 424.56v30.327c0 16.759 13.564 30.321 30.327 30.321h424.562c16.759 0 30.322-13.562 30.322-30.321V424.56c-36.012-75.811-90.976-90.975-90.976-90.975z"/></symbol><use xlink:href="#sprite-profile" y="2060" width="12" height="12"/><symbol id="sprite-taxi" viewBox="0 0 512 512"><title>taxi</title><path d="M365.959 201.593h-18.323a8.591 8.591 0 0 0 0 17.182h18.323a8.591 8.591 0 0 0 0-17.182zM368.217 272.564a17.645 17.645 0 0 0-13.994-6.828H157.776a17.646 17.646 0 0 0-13.994 6.828 17.641 17.641 0 0 0-3.23 15.232l4.582 18.328a17.73 17.73 0 0 0 17.224 13.447h187.284a17.73 17.73 0 0 0 17.224-13.448l4.582-18.327a17.644 17.644 0 0 0-3.231-15.232zm-13.438 11.066l-4.582 18.326a.57.57 0 0 1-.555.434H162.358a.573.573 0 0 1-.556-.433l-4.582-18.327c-.021-.081-.068-.271.104-.491s.368-.22.451-.22h196.448c.084 0 .279 0 .451.22s.126.409.105.491z"/><path d="M485.083 218.774c14.842 0 26.917-12.075 26.917-26.917s-12.075-26.917-26.917-26.917h-9.163c-13.383 0-24.513 9.82-26.573 22.631l-22.917-63.023c-5.165-14.207-18.792-23.751-33.908-23.751h-65.337l-4.836-24.177c-2.506-12.539-13.608-21.639-26.394-21.639h-79.912c-12.786 0-23.886 9.1-26.394 21.639l-4.835 24.177h-65.337c-15.116 0-28.743 9.545-33.908 23.75L62.653 187.57c-2.059-12.81-13.189-22.63-26.572-22.63h-9.163C12.075 164.94 0 177.015 0 191.857c0 14.842 12.075 26.917 26.917 26.917h9.163a26.75 26.75 0 0 0 11.801-2.731l-19.64 24.551a45.404 45.404 0 0 0-9.915 28.263v170.409c0 9.79 7.964 17.754 17.754 17.754h27.49c9.79 0 17.754-7.964 17.754-17.754V402.04h349.351v37.226c0 9.79 7.964 17.754 17.754 17.754h27.49c9.79 0 17.754-7.964 17.754-17.754V268.857a45.402 45.402 0 0 0-9.915-28.263l-19.64-24.551a26.75 26.75 0 0 0 11.801 2.731h9.164zM36.081 201.593h-9.163c-5.369 0-9.736-4.367-9.736-9.736 0-5.369 4.367-9.736 9.736-9.736h9.163c5.369 0 9.736 4.367 9.736 9.736 0 5.368-4.368 9.736-9.736 9.736zM206.497 79.988c.907-4.535 4.922-7.827 9.546-7.827h79.912c4.625 0 8.64 3.292 9.546 7.827l4.162 20.809H202.335l4.162-20.809zM64.143 439.266a.574.574 0 0 1-.573.573H36.08a.574.574 0 0 1-.573-.573v-42.588a35.862 35.862 0 0 0 18.899 5.362h9.736v37.226zm293.226-54.407H154.631V365.96c0-.316.257-.573.573-.573h201.593c.316 0 .573.257.573.573v18.899zm119.123 54.407a.574.574 0 0 1-.573.573h-27.49a.574.574 0 0 1-.573-.573V402.04h9.736a35.862 35.862 0 0 0 18.899-5.362v42.588zm-6.148-187.939a28.174 28.174 0 0 1 6.149 17.531v97.102c0 10.421-8.478 18.899-18.899 18.899H374.55V365.96c0-9.79-7.964-17.754-17.754-17.754H155.204c-9.79 0-17.754 7.964-17.754 17.754v18.899H54.407c-10.421 0-18.899-8.478-18.899-18.899v-97.102a28.163 28.163 0 0 1 6.15-17.531l26.041-32.553H310.98a8.591 8.591 0 0 0 0-17.182H75.836l25.882-71.175c2.705-7.441 9.843-12.44 17.761-12.44h273.044c7.918 0 15.055 5 17.761 12.44l25.882 71.175h-33.551a8.591 8.591 0 0 0 0 17.182h41.688l26.041 32.553zm-4.161-59.47c0-5.369 4.367-9.736 9.736-9.736h9.163c5.369 0 9.736 4.367 9.736 9.736 0 5.369-4.367 9.736-9.736 9.736h-9.163c-5.368 0-9.736-4.368-9.736-9.736z"/><path d="M91.06 329.879c-9.79 0-17.754 7.964-17.754 17.754s7.964 17.754 17.754 17.754 17.754-7.964 17.754-17.754-7.964-17.754-17.754-17.754zM420.94 329.879c-9.79 0-17.754 7.964-17.754 17.754s7.964 17.754 17.754 17.754c9.79 0 17.754-7.964 17.754-17.754s-7.965-17.754-17.754-17.754zM86.479 256.573c-17.369 0-31.499 14.13-31.499 31.499s14.13 31.499 31.499 31.499 31.499-14.13 31.499-31.499-14.13-31.499-31.499-31.499zm0 45.816c-7.895 0-14.318-6.422-14.318-14.318s6.422-14.318 14.318-14.318 14.318 6.422 14.318 14.318-6.423 14.318-14.318 14.318zM425.521 256.573c-17.369 0-31.499 14.13-31.499 31.499s14.13 31.499 31.499 31.499 31.499-14.13 31.499-31.499-14.13-31.499-31.499-31.499zm0 45.816c-7.895 0-14.318-6.422-14.318-14.318s6.422-14.318 14.318-14.318c7.895 0 14.318 6.422 14.318 14.318s-6.422 14.318-14.318 14.318z"/></symbol><use xlink:href="#sprite-taxi" y="2072" width="512" height="512"/></svg>