<svg xmlns="http://www.w3.org/2000/svg" width="16" height="12" viewBox="0 0 16 12">
  <defs>
    <style>
      .cls-1 {
        fill: #77c94a;
        fill-rule: evenodd;
      }
    </style>
  </defs>
  <path id="Forma_1" data-name="Forma 1" class="cls-1" d="M1310.57,6709a1.4,1.4,0,0,0,.94-0.34l-4.54-4.33c-0.1.08-.21,0.15-0.31,0.22-0.34.24-.61,0.42-0.83,0.56a5.5,5.5,0,0,1-.84.41,2.663,2.663,0,0,1-.98.21h-0.02a2.663,2.663,0,0,1-.98-0.21,6.2,6.2,0,0,1-.85-0.41c-0.21-.14-0.48-0.32-0.82-0.56-0.1-.07-0.2-0.14-0.31-0.22l-4.54,4.33a1.4,1.4,0,0,0,.94.34h13.14Zm-13.67-7.39a4.675,4.675,0,0,1-.9-0.74v6.58l4-3.81C1299.2,6703.11,1298.17,6702.43,1296.9,6701.61Zm14.21,0c-1.22.79-2.25,1.46-3.1,2.03l3.99,3.81v-6.58A5,5,0,0,1,1311.11,6701.61Zm-0.54-4.61h-13.14a1.322,1.322,0,0,0-1.06.44,1.672,1.672,0,0,0-.37,1.11,1.892,1.892,0,0,0,.49,1.16,4.4,4.4,0,0,0,1.05.99c0.2,0.14.81,0.54,1.83,1.21,0.55,0.37,1.02.68,1.43,0.96,0.35,0.23.66,0.43,0.91,0.6a1.261,1.261,0,0,0,.13.09c0.06,0.04.14,0.1,0.24,0.17,0.2,0.13.36,0.24,0.49,0.32s0.28,0.18.46,0.28a2.792,2.792,0,0,0,.51.23,1.585,1.585,0,0,0,.45.08h0.02a1.585,1.585,0,0,0,.45-0.08,2.792,2.792,0,0,0,.51-0.23c0.18-.1.33-0.2,0.46-0.28s0.29-.19.49-0.32c0.1-.07.18-0.13,0.24-0.17a1.261,1.261,0,0,0,.13-0.09c0.2-.13.5-0.33,0.91-0.6,0.74-.49,1.83-1.21,3.27-2.17a4.043,4.043,0,0,0,1.09-1.05,2.207,2.207,0,0,0,.44-1.29,1.289,1.289,0,0,0-.42-0.96A1.421,1.421,0,0,0,1310.57,6697Z" transform="translate(-1296 -6697)"/>
</svg>
